<?xml version="1.0" encoding="UTF-8"?>
<!DOCTYPE svg PUBLIC "-//W3C//DTD SVG 1.1//EN" "http://www.w3.org/Graphics/SVG/1.1/DTD/svg11.dtd">
<svg xmlns="http://www.w3.org/2000/svg" version="1.1" width="720px" height="202px" style="shape-rendering:geometricPrecision; text-rendering:geometricPrecision; image-rendering:optimizeQuality; fill-rule:evenodd; clip-rule:evenodd" xmlns:xlink="http://www.w3.org/1999/xlink">
<g><path style="opacity:0.313" fill="#0065cc" d="M 598.5,-0.5 C 598.833,-0.5 599.167,-0.5 599.5,-0.5C 599.5,13.8333 599.5,28.1667 599.5,42.5C 597.901,42.7678 596.568,42.4345 595.5,41.5C 596.5,41.5 597.5,41.5 598.5,41.5C 598.5,27.5 598.5,13.5 598.5,-0.5 Z"/></g>
<g><path style="opacity:1" fill="#0066cc" d="M 601.5,-0.5 C 611.833,-0.5 622.167,-0.5 632.5,-0.5C 632.832,51.6693 632.499,103.669 631.5,155.5C 631.667,103.832 631.5,52.1656 631,0.5C 630.5,51.8323 630.333,103.166 630.5,154.5C 620.833,154.5 611.167,154.5 601.5,154.5C 601.5,153.5 601.5,152.5 601.5,151.5C 595.516,152.88 589.516,154.38 583.5,156C 573.297,157.206 563.297,156.372 553.5,153.5C 552.537,153.97 552.537,154.637 553.5,155.5C 551.181,155.008 549.181,154.008 547.5,152.5C 548.552,152.649 549.552,152.483 550.5,152C 544.608,149.108 540.441,144.608 538,138.5C 529.806,113.945 529.472,89.2784 537,64.5C 545.257,48.3618 558.59,40.6951 577,41.5C 584.477,41.7674 591.81,42.7674 599,44.5C 599.333,44.1667 599.667,43.8333 600,43.5C 600.199,28.789 600.699,14.1224 601.5,-0.5 Z M 596.5,70.5 C 598.466,88.5975 599.133,106.931 598.5,125.5C 592.386,126.731 586.22,127.731 580,128.5C 574.499,128.338 570.333,126.005 567.5,121.5C 567.34,119.847 566.674,118.514 565.5,117.5C 562.035,103.079 563.202,89.0788 569,75.5C 570.938,72.8941 573.438,71.0608 576.5,70C 583.18,69.5265 589.846,69.6931 596.5,70.5 Z"/></g>
<g><path style="opacity:0.902" fill="#3d85d4" d="M 631.5,155.5 C 621.013,156.494 610.346,156.828 599.5,156.5C 599.719,155.325 599.386,154.325 598.5,153.5C 586.615,158.245 574.282,159.745 561.5,158C 558.621,157.454 555.954,156.621 553.5,155.5C 552.537,154.637 552.537,153.97 553.5,153.5C 563.297,156.372 573.297,157.206 583.5,156C 589.516,154.38 595.516,152.88 601.5,151.5C 601.5,152.5 601.5,153.5 601.5,154.5C 611.167,154.5 620.833,154.5 630.5,154.5C 630.333,103.166 630.5,51.8323 631,0.5C 631.5,52.1656 631.667,103.832 631.5,155.5 Z"/></g>
<g><path style="opacity:0.976" fill="#40ac48" d="M 174.5,23.5 C 184.132,32.6311 193.632,41.9644 203,51.5C 203.667,52.5 203.667,53.5 203,54.5C 161.333,96.1667 119.667,137.833 78,179.5C 56.6667,158.167 35.3333,136.833 14,115.5C 13.3333,114.167 13.3333,112.833 14,111.5C 23.0417,102.124 32.3751,93.1236 42,84.5C 54.1255,95.6244 65.9588,107.124 77.5,119C 78.1667,119.667 78.8333,119.667 79.5,119C 111.422,87.2447 143.089,55.4114 174.5,23.5 Z"/></g>
<g><path style="opacity:1" fill="#0166cc" d="M 310.5,135.5 C 310.34,137.153 309.674,138.486 308.5,139.5C 308.631,138.761 308.464,138.094 308,137.5C 303.063,147.089 295.229,152.923 284.5,155C 264.277,157.676 244.277,156.51 224.5,151.5C 224.27,143.569 224.27,135.569 224.5,127.5C 237.16,128.499 249.826,129.499 262.5,130.5C 264.833,130.333 267.167,130.167 269.5,130C 270.712,128.893 270.379,128.393 268.5,128.5C 272.193,128.068 275.36,126.401 278,123.5C 278.667,122.5 278.667,121.5 278,120.5C 276.188,119.023 274.355,117.69 272.5,116.5C 274.379,116.607 274.712,116.107 273.5,115C 262.844,112.559 252.177,110.559 241.5,109C 242.416,109.278 243.082,109.778 243.5,110.5C 241.447,110.598 239.78,109.931 238.5,108.5C 240.379,108.607 240.712,108.107 239.5,107C 226.192,102.077 220.525,92.41 222.5,78C 221.317,67.2045 224.65,58.2045 232.5,51C 235.813,49.0318 239.146,47.0318 242.5,45C 241.906,44.5357 241.239,44.369 240.5,44.5C 241.78,43.0687 243.447,42.4021 245.5,42.5C 245.082,43.2216 244.416,43.7216 243.5,44C 264.26,40.893 284.926,41.893 305.5,47C 306.704,48.3528 307.371,50.0194 307.5,52C 306.702,58.4766 306.368,64.9766 306.5,71.5C 297.499,70.7501 288.499,69.9168 279.5,69C 272.833,68.3333 266.167,68.3333 259.5,69C 251.074,71.4672 249.741,75.8005 255.5,82C 265.716,84.8432 276.049,87.1766 286.5,89C 303.556,92.7387 311.556,103.405 310.5,121C 310.04,126.232 309.54,131.398 309,136.5C 309.383,135.944 309.883,135.611 310.5,135.5 Z"/></g>
<g><path style="opacity:1" fill="#0066cc" d="M 401.5,41.5 C 403.553,41.4021 405.22,42.0687 406.5,43.5C 404.621,43.3932 404.288,43.8932 405.5,45C 417.956,50.8141 425.122,60.6474 427,74.5C 430.282,91.1687 430.282,107.835 427,124.5C 425.859,129.758 424.025,134.758 421.5,139.5C 421.957,140.298 422.624,140.631 423.5,140.5C 423.068,141.71 422.401,142.71 421.5,143.5C 421.631,142.761 421.464,142.094 421,141.5C 412.134,151.514 400.967,156.514 387.5,156.5C 378.563,156.316 369.73,156.316 361,156.5C 360.5,171.496 360.333,186.496 360.5,201.5C 350.833,201.5 341.167,201.5 331.5,201.5C 331.5,149.167 331.5,96.8333 331.5,44.5C 341.167,44.5 350.833,44.5 360.5,44.5C 360.222,46.3464 360.889,47.6798 362.5,48.5C 375.474,41.447 389.141,39.6136 403.5,43C 402.584,42.7216 401.918,42.2216 401.5,41.5 Z M 397.5,101.5 C 396.532,103.607 396.198,105.941 396.5,108.5C 395.868,121.632 389.034,128.632 376,129.5C 371.587,129.049 367.253,128.382 363,127.5C 362.167,109.824 362.334,92.1572 363.5,74.5C 372.193,69.589 380.859,69.4223 389.5,74C 392.164,76.6692 393.998,79.8359 395,83.5C 396.235,89.4457 397.068,95.4457 397.5,101.5 Z"/></g>
<g><path style="opacity:0.937" fill="#3a81d3" d="M 401.5,41.5 C 401.918,42.2216 402.584,42.7216 403.5,43C 389.141,39.6136 375.474,41.447 362.5,48.5C 360.889,47.6798 360.222,46.3464 360.5,44.5C 361.222,44.9175 361.722,45.5842 362,46.5C 362.399,46.2716 362.565,45.9382 362.5,45.5C 375.014,39.297 388.014,37.9637 401.5,41.5 Z"/></g>
<g><path style="opacity:1" fill="#609bda" d="M 362.5,45.5 C 362.565,45.9382 362.399,46.2716 362,46.5C 361.722,45.5842 361.222,44.9175 360.5,44.5C 350.833,44.5 341.167,44.5 331.5,44.5C 331.5,96.8333 331.5,149.167 331.5,201.5C 330.833,201.5 330.167,201.5 329.5,201.5C 329.5,148.5 329.5,95.5 329.5,42.5C 340.5,42.5 351.5,42.5 362.5,42.5C 362.5,43.5 362.5,44.5 362.5,45.5 Z"/></g>
<g><path style="opacity:1" fill="#0066cc" d="M 489.5,43.5 C 491.553,43.4021 493.22,44.0687 494.5,45.5C 493.761,45.369 493.094,45.5357 492.5,46C 500.368,49.5363 505.868,55.3697 509,63.5C 510.523,71.1016 510.856,78.7682 510,86.5C 509.108,89.2837 507.942,91.9504 506.5,94.5C 506.957,95.2975 507.624,95.6309 508.5,95.5C 508.068,96.7095 507.401,97.7095 506.5,98.5C 506.631,97.7611 506.464,97.0944 506,96.5C 494.179,108.665 480.345,111.498 464.5,105C 457.04,100.528 452.206,94.0283 450,85.5C 447.007,54.8264 460.841,41.3264 491.5,45C 490.584,44.7216 489.918,44.2216 489.5,43.5 Z"/></g>
<g><path style="opacity:0.999" fill="#498ad5" d="M 494.5,45.5 C 502.452,48.6207 507.952,54.2874 511,62.5C 512.537,70.7697 512.87,79.103 512,87.5C 511.094,90.3098 509.927,92.9764 508.5,95.5C 507.624,95.6309 506.957,95.2975 506.5,94.5C 507.942,91.9504 509.108,89.2837 510,86.5C 510.856,78.7682 510.523,71.1016 509,63.5C 505.868,55.3697 500.368,49.5363 492.5,46C 493.094,45.5357 493.761,45.369 494.5,45.5 Z"/></g>
<g><path style="opacity:0.317" fill="#0065cc" d="M 596.5,70.5 C 597.5,70.5 598.5,70.5 599.5,70.5C 599.83,89.0076 599.497,107.341 598.5,125.5C 599.133,106.931 598.466,88.5975 596.5,70.5 Z"/></g>
<g><path style="opacity:0.902" fill="#4088d5" d="M 599.5,70.5 C 600.662,88.9955 600.829,107.662 600,126.5C 590.272,130.515 580.439,131.015 570.5,128C 568.259,126.261 566.592,124.094 565.5,121.5C 565.97,120.537 566.637,120.537 567.5,121.5C 570.333,126.005 574.499,128.338 580,128.5C 586.22,127.731 592.386,126.731 598.5,125.5C 599.497,107.341 599.83,89.0076 599.5,70.5 Z"/></g>
<g><path style="opacity:1" fill="#4e8ed6" d="M 397.5,101.5 C 397.068,95.4457 396.235,89.4457 395,83.5C 393.998,79.8359 392.164,76.6692 389.5,74C 380.859,69.4223 372.193,69.589 363.5,74.5C 362.334,92.1572 362.167,109.824 363,127.5C 367.253,128.382 371.587,129.049 376,129.5C 389.034,128.632 395.868,121.632 396.5,108.5C 398.393,115.969 396.06,122.469 389.5,128C 379.985,132.377 370.485,132.543 361,128.5C 360.333,110.167 360.333,91.8333 361,73.5C 386.411,62.4737 399.244,70.9737 399.5,99C 399.546,100.728 399.046,102.228 398,103.5C 397.536,102.906 397.369,102.239 397.5,101.5 Z"/></g>
<g><path style="opacity:0.937" fill="#3f84d4" d="M 310.5,135.5 C 309.883,135.611 309.383,135.944 309,136.5C 309.54,131.398 310.04,126.232 310.5,121C 311.556,103.405 303.556,92.7387 286.5,89C 276.049,87.1766 265.716,84.8432 255.5,82C 249.741,75.8005 251.074,71.4672 259.5,69C 266.167,68.3333 272.833,68.3333 279.5,69C 288.499,69.9168 297.499,70.7501 306.5,71.5C 306.368,64.9766 306.702,58.4766 307.5,52C 307.371,50.0194 306.704,48.3528 305.5,47C 284.926,41.893 264.26,40.893 243.5,44C 244.416,43.7216 245.082,43.2216 245.5,42.5C 251.67,40.7689 258.003,39.7689 264.5,39.5C 279.662,40.3803 294.662,42.3803 309.5,45.5C 309,54.826 308.667,64.1594 308.5,73.5C 295.512,72.4406 282.512,71.4406 269.5,70.5C 265.413,70.4481 261.413,70.9481 257.5,72C 252.997,74.2892 252.664,76.9559 256.5,80C 266.716,82.8432 277.049,85.1766 287.5,87C 296.703,89.0039 303.87,93.8372 309,101.5C 312.938,112.723 313.438,124.056 310.5,135.5 Z"/></g>
<g><path style="opacity:1" fill="#4487d5" d="M 599.5,70.5 C 598.5,70.5 597.5,70.5 596.5,70.5C 589.846,69.6931 583.18,69.5265 576.5,70C 573.438,71.0608 570.938,72.8941 569,75.5C 563.202,89.0788 562.035,103.079 565.5,117.5C 565.607,119.379 565.107,119.712 564,118.5C 559.98,103.452 560.98,88.7856 567,74.5C 573.416,67.7791 581.25,65.6125 590.5,68C 593.851,68.0572 596.851,68.8906 599.5,70.5 Z"/></g>
<g><path style="opacity:0.953" fill="#3e83d3" d="M 240.5,44.5 C 241.239,44.369 241.906,44.5357 242.5,45C 239.146,47.0318 235.813,49.0318 232.5,51C 224.65,58.2045 221.317,67.2045 222.5,78C 220.525,92.41 226.192,102.077 239.5,107C 240.712,108.107 240.379,108.607 238.5,108.5C 228.373,106.203 222.539,99.8699 221,89.5C 220.333,81.8333 220.333,74.1667 221,66.5C 223.445,55.5562 229.945,48.2229 240.5,44.5 Z"/></g>
<g><path style="opacity:1" fill="#4688d5" d="M 406.5,43.5 C 415.724,46.8886 422.224,53.2219 426,62.5C 431.784,83.26 432.784,104.26 429,125.5C 427.85,130.786 426.017,135.786 423.5,140.5C 422.624,140.631 421.957,140.298 421.5,139.5C 424.025,134.758 425.859,129.758 427,124.5C 430.282,107.835 430.282,91.1687 427,74.5C 425.122,60.6474 417.956,50.8141 405.5,45C 404.288,43.8932 404.621,43.3932 406.5,43.5 Z"/></g>
<g><path style="opacity:0.749" fill="#3c82d3" d="M 489.5,43.5 C 489.918,44.2216 490.584,44.7216 491.5,45C 460.841,41.3264 447.007,54.8264 450,85.5C 452.206,94.0283 457.04,100.528 464.5,105C 480.345,111.498 494.179,108.665 506,96.5C 506.464,97.0944 506.631,97.7611 506.5,98.5C 499.925,106.785 491.258,110.785 480.5,110.5C 463.803,110.289 452.97,102.289 448,86.5C 444.168,54.8342 458.002,40.5008 489.5,43.5 Z"/></g>
<g><path style="opacity:0.894" fill="#3d83d3" d="M 272.5,116.5 C 262.686,115.032 253.019,113.032 243.5,110.5C 243.082,109.778 242.416,109.278 241.5,109C 252.177,110.559 262.844,112.559 273.5,115C 274.712,116.107 274.379,116.607 272.5,116.5 Z"/></g>
<g><path style="opacity:1" fill="#4085d4" d="M 599.5,-0.5 C 600.167,-0.5 600.833,-0.5 601.5,-0.5C 600.699,14.1224 600.199,28.789 600,43.5C 599.667,43.8333 599.333,44.1667 599,44.5C 591.81,42.7674 584.477,41.7674 577,41.5C 558.59,40.6951 545.257,48.3618 537,64.5C 529.472,89.2784 529.806,113.945 538,138.5C 540.441,144.608 544.608,149.108 550.5,152C 549.552,152.483 548.552,152.649 547.5,152.5C 540.845,148.222 536.345,142.222 534,134.5C 527.703,110.714 528.037,87.0473 535,63.5C 543.664,46.4925 557.664,38.4925 577,39.5C 583.246,39.6353 589.413,40.302 595.5,41.5C 596.568,42.4345 597.901,42.7678 599.5,42.5C 599.5,28.1667 599.5,13.8333 599.5,-0.5 Z"/></g>
<g><path style="opacity:0.984" fill="#4085d4" d="M 490.5,154.5 C 476.833,153.833 463.167,153.167 449.5,152.5C 448.833,150.5 448.167,148.5 447.5,146.5C 450.609,128.084 461.609,118.751 480.5,118.5C 503.011,120.495 513.678,132.829 512.5,155.5C 504.981,155.825 497.648,155.492 490.5,154.5 Z"/></g>
<g><path style="opacity:1" fill="#0066cc" d="M 449.5,152.5 C 449.647,132.019 459.981,121.352 480.5,120.5C 500.808,122.108 510.808,133.108 510.5,153.5C 490.174,152.802 469.841,152.468 449.5,152.5 Z"/></g>
<g><path style="opacity:0.573" fill="#347dd2" d="M 421.5,143.5 C 412.687,153.894 401.353,158.894 387.5,158.5C 387.5,157.833 387.5,157.167 387.5,156.5C 400.967,156.514 412.134,151.514 421,141.5C 421.464,142.094 421.631,142.761 421.5,143.5 Z"/></g>
<g><path style="opacity:0.667" fill="#76a9dd" d="M 447.5,146.5 C 448.167,148.5 448.833,150.5 449.5,152.5C 463.167,153.167 476.833,153.833 490.5,154.5C 476.167,154.5 461.833,154.5 447.5,154.5C 447.5,151.833 447.5,149.167 447.5,146.5 Z"/></g>
<g><path style="opacity:0.894" fill="#4789d5" d="M 268.5,128.5 C 270.379,128.393 270.712,128.893 269.5,130C 267.167,130.167 264.833,130.333 262.5,130.5C 249.826,129.499 237.16,128.499 224.5,127.5C 224.27,135.569 224.27,143.569 224.5,151.5C 244.277,156.51 264.277,157.676 284.5,155C 295.229,152.923 303.063,147.089 308,137.5C 308.464,138.094 308.631,138.761 308.5,139.5C 306.864,144.975 303.53,149.142 298.5,152C 292.905,155.198 286.905,157.198 280.5,158C 260.586,159.557 240.919,158.057 221.5,153.5C 222.183,144.182 222.517,134.849 222.5,125.5C 237.823,126.61 253.157,127.61 268.5,128.5 Z"/></g>
<g><path style="opacity:1" fill="#5c98d9" d="M 387.5,156.5 C 387.5,157.167 387.5,157.833 387.5,158.5C 379.125,158.74 370.792,158.407 362.5,157.5C 362.5,172.167 362.5,186.833 362.5,201.5C 361.833,201.5 361.167,201.5 360.5,201.5C 360.333,186.496 360.5,171.496 361,156.5C 369.73,156.316 378.563,156.316 387.5,156.5 Z"/></g>
</svg>
