<?xml version="1.0" encoding="UTF-8"?>
<!DOCTYPE svg PUBLIC "-//W3C//DTD SVG 1.1//EN" "http://www.w3.org/Graphics/SVG/1.1/DTD/svg11.dtd">
<svg xmlns="http://www.w3.org/2000/svg" version="1.1" width="720px" height="202px" style="shape-rendering:geometricPrecision; text-rendering:geometricPrecision; image-rendering:optimizeQuality; fill-rule:evenodd; clip-rule:evenodd" xmlns:xlink="http://www.w3.org/1999/xlink">
<g><path style="opacity:0.313" fill="#0065cc" d="M 598.5,-0.5 C 598.833,-0.5 599.167,-0.5 599.5,-0.5C 599.5,13.8333 599.5,28.1667 599.5,42.5C 597.901,42.7678 596.568,42.4345 595.5,41.5C 596.5,41.5 597.5,41.5 598.5,41.5C 598.5,27.5 598.5,13.5 598.5,-0.5 Z"/></g>
<g><path style="opacity:1" fill="#0066cc" d="M 601.5,-0.5 C 611.833,-0.5 622.167,-0.5 632.5,-0.5C 632.832,51.6693 632.499,103.669 631.5,155.5C 631.667,103.832 631.5,52.1656 631,0.5C 630.5,51.8323 630.333,103.166 630.5,154.5C 620.833,154.5 611.167,154.5 601.5,154.5C 601.5,153.5 601.5,152.5 601.5,151.5C 595.516,152.88 589.516,154.38 583.5,156C 573.297,157.206 563.297,156.372 553.5,153.5C 552.537,153.97 552.537,154.637 553.5,155.5C 551.181,155.008 549.181,154.008 547.5,152.5C 548.552,152.649 549.552,152.483 550.5,152C 544.608,149.108 540.441,144.608 538,138.5C 529.806,113.945 529.472,89.2784 537,64.5C 545.257,48.3618 558.59,40.6951 577,41.5C 584.477,41.7674 591.81,42.7674 599,44.5C 599.333,44.1667 599.667,43.8333 600,43.5C 600.199,28.789 600.699,14.1224 601.5,-0.5 Z M 596.5,70.5 C 598.466,88.5975 599.133,106.931 598.5,125.5C 592.386,126.731 586.22,127.731 580,128.5C 574.499,128.338 570.333,126.005 567.5,121.5C 567.34,119.847 566.674,118.514 565.5,117.5C 562.035,103.079 563.202,89.0788 569,75.5C 570.938,72.8941 573.438,71.0608 576.5,70C 583.18,69.5265 589.846,69.6931 596.5,70.5 Z"/></g>
<g><path style="opacity:0.902" fill="#3d85d4" d="M 631.5,155.5 C 621.013,156.494 610.346,156.828 599.5,156.5C 599.719,155.325 599.386,154.325 598.5,153.5C 586.615,158.245 574.282,159.745 561.5,158C 558.621,157.454 555.954,156.621 553.5,155.5C 552.537,154.637 552.537,153.97 553.5,153.5C 563.297,156.372 573.297,157.206 583.5,156C 589.516,154.38 595.516,152.88 601.5,151.5C 601.5,152.5 601.5,153.5 601.5,154.5C 611.167,154.5 620.833,154.5 630.5,154.5C 630.333,103.166 630.5,51.8323 631,0.5C 631.5,52.1656 631.667,103.832 631.5,155.5 Z"/></g>
<g><path style="opacity:0.976" fill="#40ac48" d="M 174.5,23.5 C 184.132,32.6311 193.632,41.9644 203,51.5C 203.667,52.5 203.667,53.5 203,54.5C 161.333,96.1667 119.667,137.833 78,179.5C 56.6667,158.167 35.3333,136.833 14,115.5C 13.3333,114.167 13.3333,112.833 14,111.5C 23.0417,102.124 32.3751,93.1236 42,84.5C 54.1255,95.6244 65.9588,107.124 77.5,119C 78.1667,119.667 78.8333,119.667 79.5,119C 111.422,87.2447 143.089,55.4114 174.5,23.5 Z"/></g>
<g><path style="opacity:1" fill="#0166cc" d="M 310.5,135.5 C 310.34,137.153 309.674,138.486 308.5,139.5C 308.631,138.761 308.464,138.094 308,137.5C 303.063,147.089 295.229,152.923 284.5,155C 264.277,157.676 244.277,156.51 224.5,151.5C 224.27,143.569 224.27,135.569 224.5,127.5C 237.16,128.499 249.826,129.499 262.5,130.5C 264.833,130.333 267.167,130.167 269.5,130C 270.712,128.893 270.379,128.393 268.5,128.5C 272.193,128.068 275.36,126.401 278,123.5C 278.667,122.5 278.667,121.5 278,120.5C 276.188,119.023 274.355,117.69 272.5,116.5C 274.379,116.607 274.712,116.107 273.5,115C 262.844,112.559 252.177,110.559 241.5,109C 242.416,109.278 243.082,109.778 243.5,110.5C 241.447,110.598 239.78,109.931 238.5,108.5C 240.379,108.607 240.712,108.107 239.5,107C 226.192,102.077 220.525,92.41 222.5,78C 221.317,67.2045 224.65,58.2045 232.5,51C 235.813,49.0318 239.146,47.0318 242.5,45C 241.906,44.5357 241.239,44.369 240.5,44.5C 241.78,43.0687 243.447,42.4021 245.5,42.5C 245.082,43.2216 244.416,43.7216 243.5,44C 264.26,40.893 284.926,41.893 305.5,47C 306.704,48.3528 307.371,50.0194 307.5,52C 306.702,58.4766 306.368,64.9766 306.5,71.5C 297.499,70.7501 288.499,69.9168 279.5,69C 272.833,68.3333 266.167,68.3333 259.5,69C 251.074,71.4672 249.741,75.8005 255.5,82C 265.716,84.8432 276.049,87.1766 286.5,89C 303.556,92.7387 311.556,103.405 310.5,121C 310.04,126.232 309.54,131.398 309,136.5C 309.383,135.944 309.883,135.611 310.5,135.5 Z"/></g>
<g><path style="opacity:1" fill="#0066cc" d="M 401.5,41.5 C 403.553,41.4021 405.22,42.0687 406.5,43.5C 404.621,43.3932 404.288,43.8932 405.5,45C 417.956,50.8141 425.122,60.6474 427,74.5C 430.282,91.1687 430.282,107.835 427,124.5C 425.859,129.758 424.025,134.758 421.5,139.5C 421.957,140.298 422.624,140.631 423.5,140.5C 423.068,141.71 422.401,142.71 421.5,143.5C 421.631,142.761 421.464,142.094 421,141.5C 412.134,151.514 400.967,156.514 387.5,156.5C 378.563,156.316 369.73,156.316 361,156.5C 360.5,171.496 360.333,186.496 360.5,201.5C 350.833,201.5 341.167,201.5 331.5,201.5C 331.5,149.167 331.5,96.8333 331.5,44.5C 341.167,44.5 350.833,44.5 360.5,44.5C 360.222,46.3464 360.889,47.6798 362.5,48.5C 375.474,41.447 389.141,39.6136 403.5,43C 402.584,42.7216 401.918,42.2216 401.5,41.5 Z M 397.5,101.5 C 396.532,103.607 396.198,105.941 396.5,108.5C 395.868,121.632 389.034,128.632 376,129.5C 371.587,129.049 367.253,128.382 363,127.5C 362.167,109.824 362.334,92.1572 363.5,74.5C 372.193,69.589 380.859,69.4223 389.5,74C 392.164,76.6692 393.998,79.8359 395,83.5C 396.235,89.4457 397.068,95.4457 397.5,101.5 Z"/></g>
<g><path style="opacity:0.937" fill="#3a81d3" d="M 401.5,41.5 C 401.918,42.2216 402.584,42.7216 403.5,43C 389.141,39.6136 375.474,41.447 362.5,48.5C 360.889,47.6798 360.222,46.3464 360.5,44.5C 361.222,44.9175 361.722,45.5842 362,46.5C 362.399,46.2716 362.565,45.9382 362.5,45.5C 375.014,39.297 388.014,37.9637 401.5,41.5 Z"/></g>
<g><path style="opacity:1" fill="#609bda" d="M 362.5,45.5 C 362.565,45.9382 362.399,46.2716 362,46.5C 361.722,45.5842 361.222,44.9175 360.5,44.5C 350.833,44.5 341.167,44.5 331.5,44.5C 331.5,96.8333 331.5,149.167 331.5,201.5C 330.833,201.5 330.167,201.5 329.5,201.5C 329.5,148.5 329.5,95.5 329.5,42.5C 340.5,42.5 351.5,42.5 362.5,42.5C 362.5,43.5 362.5,44.5 362.5,45.5 Z"/></g>
<g><path style="opacity:1" fill="#0066cc" d="M 489.5,43.5 C 491.553,43.4021 493.22,44.0687 494.5,45.5C 493.761,45.369 493.094,45.5357 492.5,46C 500.368,49.5363 505.868,55.3697 509,63.5C 510.523,71.1016 510.856,78.7682 510,86.5C 509.108,89.2837 507.942,91.9504 506.5,94.5C 506.957,95.2975 507.624,95.6309 508.5,95.5C 508.068,96.7095 507.401,97.7095 506.5,98.5C 506.631,97.7611 506.464,97.0944 506,96.5C 494.179,108.665 480.345,111.498 464.5,105C 457.04,100.528 452.206,94.0283 450,85.5C 447.007,54.8264 460.841,41.3264 491.5,45C 490.584,44.7216 489.918,44.2216 489.5,43.5 Z"/></g>
<g><path style="opacity:0.999" fill="#498ad5" d="M 494.5,45.5 C 502.452,48.6207 507.952,54.2874 511,62.5C 512.537,70.7697 512.87,79.103 512,87.5C 511.094,90.3098 509.927,92.9764 508.5,95.5C 507.624,95.6309 506.957,95.2975 506.5,94.5C 507.942,91.9504 509.108,89.2837 510,86.5C 510.856,78.7682 510.523,71.1016 509,63.5C 505.868,55.3697 500.368,49.5363 492.5,46C 493.094,45.5357 493.761,45.369 494.5,45.5 Z"/></g>
<g><path style="opacity:0.317" fill="#0065cc" d="M 596.5,70.5 C 597.5,70.5 598.5,70.5 599.5,70.5C 599.83,89.0076 599.497,107.341 598.5,125.5C 599.133,106.931 598.466,88.5975 596.5,70.5 Z"/></g>
<g><path style="opacity:0.902" fill="#4088d5" d="M 599.5,70.5 C 600.662,88.9955 600.829,107.662 600,126.5C 590.272,130.515 580.439,131.015 570.5,128C 568.259,126.261 566.592,124.094 565.5,121.5C 565.97,120.537 566.637,120.537 567.5,121.5C 570.333,126.005 574.499,128.338 580,128.5C 586.22,127.731 592.386,126.731 598.5,125.5C 599.497,107.341 599.83,89.0076 599.5,70.5 Z"/></g>
<g><path style="opacity:1" fill="#4e8ed6" d="M 397.5,101.5 C 397.068,95.4457 396.235,89.4457 395,83.5C 393.998,79.8359 392.164,76.6692 389.5,74C 380.859,69.4223 372.193,69.589 363.5,74.5C 362.334,92.1572 362.167,109.824 363,127.5C 367.253,128.382 371.587,129.049 376,129.5C 389.034,128.632 395.868,121.632 396.5,108.5C 398.393,115.969 396.06,122.469 389.5,128C 379.985,132.377 370.485,132.543 361,128.5C 360.333,110.167 360.333,91.8333 361,73.5C 386.411,62.4737 399.244,70.9737 399.5,99C 399.546,100.728 399.046,102.228 398,103.5C 397.536,102.906 397.369,102.239 397.5,101.5 Z"/></g>
<g><path style="opacity:0.937" fill="#3f84d4" d="M 310.5,135.5 C 309.883,135.611 309.383,135.944 309,136.5C 309.54,131.398 310.04,126.232 310.5,121C 311.556,103.405 303.556,92.7387 286.5,89C 276.049,87.1766 265.716,84.8432 255.5,82C 249.741,75.8005 251.074,71.4672 259.5,69C 266.167,68.3333 272.833,68.3333 279.5,69C 288.499,69.9168 297.499,70.7501 306.5,71.5C 306.368,64.9766 306.702,58.4766 307.5,52C 307.371,50.0194 306.704,48.3528 305.5,47C 284.926,41.893 264.26,40.893 243.5,44C 244.416,43.7216 245.082,43.2216 245.5,42.5C 251.67,40.7689 258.003,39.7689 264.5,39.5C 279.662,40.3803 294.662,42.3803 309.5,45.5C 309,54.826 308.667,64.1594 308.5,73.5C 295.512,72.4406 282.512,71.4406 269.5,70.5C 265.413,70.4481 261.413,70.9481 257.5,72C 252.997,74.2892 252.664,76.9559 256.5,80C 266.716,82.8432 277.049,85.1766 287.5,87C 296.703,89.0039 303.87,93.8372 309,101.5C 312.938,112.723 313.438,124.056 310.5,135.5 Z"/></g>
<g><path style="opacity:1" fill="#4487d5" d="M 599.5,70.5 C 598.5,70.5 597.5,70.5 596.5,70.5C 589.846,69.6931 583.18,69.5265 576.5,70C 573.438,71.0608 570.938,72.8941 569,75.5C 563.202,89.0788 562.035,103.079 565.5,117.5C 565.607,119.379 565.107,119.712 564,118.5C 559.98,103.452 560.98,88.7856 567,74.5C 573.416,67.7791 581.25,65.6125 590.5,68C 593.851,68.0572 596.851,68.8906 599.5,70.5 Z"/></g>
<g><path style="opacity:0.953" fill="#3e83d3" d="M 240.5,44.5 C 241.239,44.369 241.906,44.5357 242.5,45C 239.146,47.0318 235.813,49.0318 232.5,51C 224.65,58.2045 221.317,67.2045 222.5,78C 220.525,92.41 226.192,102.077 239.5,107C 240.712,108.107 240.379,108.607 238.5,108.5C 228.373,106.203 222.539,99.8699 221,89.5C 220.333,81.8333 220.333,74.1667 221,66.5C 223.445,55.5562 229.945,48.2229 240.5,44.5 Z"/></g>
<g><path style="opacity:1" fill="#4688d5" d="M 406.5,43.5 C 415.724,46.8886 422.224,53.2219 426,62.5C 431.784,83.26 432.784,104.26 429,125.5C 427.85,130.786 426.017,135.786 423.5,140.5C 422.624,140.631 421.957,140.298 421.5,139.5C 424.025,134.758 425.859,129.758 427,124.5C 430.282,107.835 430.282,91.1687 427,74.5C 425.122,60.6474 417.956,50.8141 405.5,45C 404.288,43.8932 404.621,43.3932 406.5,43.5 Z"/></g>
<g><path style="opacity:0.749" fill="#3c82d3" d="M 489.5,43.5 C 489.918,44.2216 490.584,44.7216 491.5,45C 460.841,41.3264 447.007,54.8264 450,85.5C 452.206,94.0283 457.04,100.528 464.5,105C 480.345,111.498 494.179,108.665 506,96.5C 506.464,97.0944 506.631,97.7611 506.5,98.5C 499.925,106.785 491.258,110.785 480.5,110.5C 463.803,110.289 452.97,102.289 448,86.5C 444.168,54.8342 458.002,40.5008 489.5,43.5 Z"/></g>
<g><path style="opacity:0.894" fill="#3d83d3" d="M 272.5,116.5 C 262.686,115.032 253.019,113.032 243.5,110.5C 243.082,109.778 242.416,109.278 241.5,109C 252.177,110.559 262.844,112.559 273.5,115C 274.712,116.107 274.379,116.607 272.5,116.5 Z"/></g>
<g><path style="opacity:1" fill="#4085d4" d="M 599.5,-0.5 C 600.167,-0.5 600.833,-0.5 601.5,-0.5C 600.699,14.1224 600.199,28.789 600,43.5C 599.667,43.8333 599.333,44.1667 599,44.5C 591.81,42.7674 584.477,41.7674 577,41.5C 558.59,40.6951 545.257,48.3618 537,64.5C 529.472,89.2784 529.806,113.945 538,138.5C 540.441,144.608 544.608,149.108 550.5,152C 549.552,152.483 548.552,152.649 547.5,152.5C 540.845,148.222 536.345,142.222 534,134.5C 527.703,110.714 528.037,87.0473 535,63.5C 543.664,46.4925 557.664,38.4925 577,39.5C 583.246,39.6353 589.413,40.302 595.5,41.5C 596.568,42.4345 597.901,42.7678 599.5,42.5C 599.5,28.1667 599.5,13.8333 599.5,-0.5 Z"/></g>
<g><path style="opacity:0.984" fill="#4085d4" d="M 490.5,154.5 C 476.833,153.833 463.167,153.167 449.5,152.5C 448.833,150.5 448.167,148.5 447.5,146.5C 450.609,128.084 461.609,118.751 480.5,118.5C 503.011,120.495 513.678,132.829 512.5,155.5C 504.981,155.825 497.648,155.492 490.5,154.5 Z"/></g>
<g><path style="opacity:1" fill="#0066cc" d="M 449.5,152.5 C 449.647,132.019 459.981,121.352 480.5,120.5C 500.808,122.108 510.808,133.108 510.5,153.5C 490.174,152.802 469.841,152.468 449.5,152.5 Z"/></g>
<g><path style="opacity:0.573" fill="#347dd2" d="M 421.5,143.5 C 412.687,153.894 401.353,158.894 387.5,158.5C 387.5,157.833 387.5,157.167 387.5,156.5C 400.967,156.514 412.134,151.514 421,141.5C 421.464,142.094 421.631,142.761 421.5,143.5 Z"/></g>
<g><path style="opacity:0.667" fill="#76a9dd" d="M 447.5,146.5 C 448.167,148.5 448.833,150.5 449.5,152.5C 463.167,153.167 476.833,153.833 490.5,154.5C 476.167,154.5 461.833,154.5 447.5,154.5C 447.5,151.833 447.5,149.167 447.5,146.5 Z"/></g>
<g><path style="opacity:0.894" fill="#4789d5" d="M 268.5,128.5 C 270.379,128.393 270.712,128.893 269.5,130C 267.167,130.167 264.833,130.333 262.5,130.5C 249.826,129.499 237.16,128.499 224.5,127.5C 224.27,135.569 224.27,143.569 224.5,151.5C 244.277,156.51 264.277,157.676 284.5,155C 295.229,152.923 303.063,147.089 308,137.5C 308.464,138.094 308.631,138.761 308.5,139.5C 306.864,144.975 303.53,149.142 298.5,152C 292.905,155.198 286.905,157.198 280.5,158C 260.586,159.557 240.919,158.057 221.5,153.5C 222.183,144.182 222.517,134.849 222.5,125.5C 237.823,126.61 253.157,127.61 268.5,128.5 Z"/></g>
<g><path style="opacity:1" fill="#5c98d9" d="M 387.5,156.5 C 387.5,157.167 387.5,157.833 387.5,158.5C 379.125,158.74 370.792,158.407 362.5,157.5C 362.5,172.167 362.5,186.833 362.5,201.5C 361.833,201.5 361.167,201.5 360.5,201.5C 360.333,186.496 360.5,171.496 361,156.5C 369.73,156.316 378.563,156.316 387.5,156.5 Z"/></g>
<g><path style="opacity:0.277" fill="#0065cc" d="M 259.5,176.5 C 254.833,176.5 250.167,176.5 245.5,176.5C 245.5,177.833 245.5,179.167 245.5,180.5C 244.549,179.081 244.216,177.415 244.5,175.5C 249.695,175.179 254.695,175.513 259.5,176.5 Z"/></g>
<g><path style="opacity:0.274" fill="#0065cc" d="M 311.5,176.5 C 312.919,175.549 314.585,175.216 316.5,175.5C 316.5,183.833 316.5,192.167 316.5,200.5C 315.209,200.737 314.209,200.404 313.5,199.5C 315.465,192.24 316.132,184.573 315.5,176.5C 314.167,176.5 312.833,176.5 311.5,176.5 Z"/></g>
<g><path style="opacity:0.271" fill="#0065cc" d="M 468.5,176.5 C 467.167,176.5 465.833,176.5 464.5,176.5C 464.5,181.833 464.5,187.167 464.5,192.5C 463.511,187.025 463.178,181.358 463.5,175.5C 465.415,175.216 467.081,175.549 468.5,176.5 Z"/></g>
<g><path style="opacity:0.273" fill="#0065cc" d="M 511.5,176.5 C 515.97,175.514 520.637,175.181 525.5,175.5C 525.784,177.415 525.451,179.081 524.5,180.5C 524.5,179.167 524.5,177.833 524.5,176.5C 520.167,176.5 515.833,176.5 511.5,176.5 Z"/></g>
<g><path style="opacity:0.283" fill="#0769cc" d="M 600.5,176.5 C 599.167,176.5 597.833,176.5 596.5,176.5C 596.5,183.833 596.5,191.167 596.5,198.5C 600.167,198.5 603.833,198.5 607.5,198.5C 603.702,199.483 599.702,199.817 595.5,199.5C 595.5,191.5 595.5,183.5 595.5,175.5C 597.415,175.216 599.081,175.549 600.5,176.5 Z"/></g>
<g><path style="opacity:0.283" fill="#0367cc" d="M 613.5,176.5 C 612.167,176.5 610.833,176.5 609.5,176.5C 609.5,183.833 609.5,191.167 609.5,198.5C 610.833,198.5 612.167,198.5 613.5,198.5C 612.081,199.451 610.415,199.784 608.5,199.5C 608.5,191.5 608.5,183.5 608.5,175.5C 610.415,175.216 612.081,175.549 613.5,176.5 Z"/></g>
<g><path style="opacity:0.277" fill="#0065cc" d="M 657.5,176.5 C 662.305,175.513 667.305,175.179 672.5,175.5C 672.784,177.415 672.451,179.081 671.5,180.5C 671.5,179.167 671.5,177.833 671.5,176.5C 666.833,176.5 662.167,176.5 657.5,176.5 Z"/></g>
<g><path style="opacity:0.29" fill="#0367cc" d="M 229.5,176.5 C 229.5,183.833 229.5,191.167 229.5,198.5C 230.833,198.5 232.167,198.5 233.5,198.5C 232.081,199.451 230.415,199.784 228.5,199.5C 228.175,191.648 228.508,183.982 229.5,176.5 Z"/></g>
<g><path style="opacity:0.29" fill="#0367cc" d="M 261.5,176.5 C 261.5,183.833 261.5,191.167 261.5,198.5C 262.833,198.5 264.167,198.5 265.5,198.5C 264.081,199.451 262.415,199.784 260.5,199.5C 260.175,191.648 260.508,183.982 261.5,176.5 Z"/></g>
<g><path style="opacity:0.159" fill="#2472d0" d="M 171.5,184.5 C 170.778,184.082 170.278,183.416 170,182.5C 169.833,183 169.667,183.5 169.5,184C 171.44,187.349 172.607,190.849 173,194.5C 171.178,192.955 169.011,192.288 166.5,192.5C 164.571,192.54 162.738,192.873 161,193.5C 160.301,191.926 160.635,190.593 162,189.5C 164.121,191.457 166.621,191.957 169.5,191C 167.5,190.667 165.5,190.333 163.5,190C 163.957,189.586 164.291,189.086 164.5,188.5C 163.833,188.167 163.167,187.833 162.5,187.5C 163.929,185.669 164.429,183.669 164,181.5C 163.722,182.416 163.222,183.082 162.5,183.5C 162.73,180.032 164.23,177.365 167,175.5C 169.557,177.947 171.057,180.947 171.5,184.5 Z M 166.5,186.5 C 167.776,187.386 167.776,188.386 166.5,189.5C 165.913,188.767 165.913,187.767 166.5,186.5 Z"/></g>
<g><path style="opacity:1" fill="#196ece" d="M 213.5,176.5 C 217.833,175.167 222.167,175.167 226.5,176.5C 224.35,177.815 221.683,179.149 218.5,180.5C 218.5,181.833 218.5,183.167 218.5,184.5C 218.389,185.117 218.056,185.617 217.5,186C 228.167,186.667 228.167,187.333 217.5,188C 220.482,188.498 223.482,188.665 226.5,188.5C 226.5,187.167 226.5,185.833 226.5,184.5C 227.451,185.919 227.784,187.585 227.5,189.5C 224.5,189.5 221.5,189.5 218.5,189.5C 218.5,191.167 218.5,192.833 218.5,194.5C 221.5,194.5 224.5,194.5 227.5,194.5C 227.5,196.167 227.5,197.833 227.5,199.5C 222.637,199.819 217.97,199.486 213.5,198.5C 217.833,198.5 222.167,198.5 226.5,198.5C 226.5,197.5 226.5,196.5 226.5,195.5C 223.482,195.335 220.482,195.502 217.5,196C 220.167,196.333 222.833,196.667 225.5,197C 222.183,197.498 218.85,197.665 215.5,197.5C 216.128,190.087 215.461,183.087 213.5,176.5 Z"/></g>
<g><path style="opacity:1" fill="#5290da" d="M 265.5,198.5 C 264.167,198.5 262.833,198.5 261.5,198.5C 261.5,191.167 261.5,183.833 261.5,176.5C 262.568,175.566 263.901,175.232 265.5,175.5C 265.5,183.167 265.5,190.833 265.5,198.5 Z"/></g>
<g><path style="opacity:0.6" fill="#6fa7e1" d="M 296.5,175.5 C 296.953,176.458 297.619,177.292 298.5,178C 297.853,181.249 297.519,184.582 297.5,188C 297.55,191.603 298.217,194.936 299.5,198C 298.207,198.49 296.873,198.657 295.5,198.5C 295.175,190.648 295.508,182.982 296.5,175.5 Z"/></g>
<g><path style="opacity:0.563" fill="#629fdf" d="M 424.5,175.5 C 424.953,176.458 425.619,177.292 426.5,178C 425.357,184.418 425.19,190.918 426,197.5C 426.333,193.167 426.667,188.833 427,184.5C 427.499,189.155 427.666,193.821 427.5,198.5C 426.167,198.5 424.833,198.5 423.5,198.5C 423.175,190.648 423.508,182.982 424.5,175.5 Z"/></g>
<g><path style="opacity:0.337" fill="#086acd" d="M 481.5,194.5 C 481.5,188.5 481.5,182.5 481.5,176.5C 480.5,176.5 479.5,176.5 478.5,176.5C 478.821,181.695 478.487,186.695 477.5,191.5C 477.5,186.167 477.5,180.833 477.5,175.5C 479.167,175.5 480.833,175.5 482.5,175.5C 482.823,182.022 482.49,188.355 481.5,194.5 Z"/></g>
<g><path style="opacity:0.737" fill="#5597dc" d="M 511.5,176.5 C 515.833,176.5 520.167,176.5 524.5,176.5C 524.5,177.833 524.5,179.167 524.5,180.5C 521.833,180.5 519.167,180.5 516.5,180.5C 516.5,181.833 516.5,183.167 516.5,184.5C 519.167,184.5 521.833,184.5 524.5,184.5C 524.5,185.833 524.5,187.167 524.5,188.5C 521.482,188.665 518.482,188.498 515.5,188C 526.167,187.333 526.167,186.667 515.5,186C 514.167,183.667 514.167,181.333 515.5,179C 518.167,178.667 520.833,178.333 523.5,178C 520.183,177.502 516.85,177.335 513.5,177.5C 513.5,184.167 513.5,190.833 513.5,197.5C 516.85,197.665 520.183,197.498 523.5,197C 520.833,196.667 518.167,196.333 515.5,196C 518.482,195.502 521.482,195.335 524.5,195.5C 524.5,196.5 524.5,197.5 524.5,198.5C 520.167,198.5 515.833,198.5 511.5,198.5C 511.5,191.167 511.5,183.833 511.5,176.5 Z"/></g>
<g><path style="opacity:1" fill="#0f6acd" d="M 524.5,184.5 C 525.451,185.919 525.784,187.585 525.5,189.5C 522.5,189.5 519.5,189.5 516.5,189.5C 516.5,191.167 516.5,192.833 516.5,194.5C 519.5,194.5 522.5,194.5 525.5,194.5C 525.5,196.167 525.5,197.833 525.5,199.5C 520.637,199.819 515.97,199.486 511.5,198.5C 515.833,198.5 520.167,198.5 524.5,198.5C 524.5,197.5 524.5,196.5 524.5,195.5C 521.482,195.335 518.482,195.502 515.5,196C 518.167,196.333 520.833,196.667 523.5,197C 520.183,197.498 516.85,197.665 513.5,197.5C 513.5,190.833 513.5,184.167 513.5,177.5C 516.85,177.335 520.183,177.502 523.5,178C 520.833,178.333 518.167,178.667 515.5,179C 514.167,181.333 514.167,183.667 515.5,186C 526.167,186.667 526.167,187.333 515.5,188C 518.482,188.498 521.482,188.665 524.5,188.5C 524.5,187.167 524.5,185.833 524.5,184.5 Z"/></g>
<g><path style="opacity:1" fill="#5f9ede" d="M 527.5,176.5 C 528.864,183.534 530.197,190.701 531.5,198C 530.207,198.49 528.873,198.657 527.5,198.5C 527.5,191.167 527.5,183.833 527.5,176.5 Z"/></g>
<g><path style="opacity:1" fill="#498dd9" d="M 613.5,176.5 C 613.5,183.833 613.5,191.167 613.5,198.5C 612.167,198.5 610.833,198.5 609.5,198.5C 609.5,191.167 609.5,183.833 609.5,176.5C 610.833,176.5 612.167,176.5 613.5,176.5 Z"/></g>
<g><path style="opacity:0.337" fill="#0d6ccd" d="M 624.5,176.5 C 622.167,176.5 619.833,176.5 617.5,176.5C 617.5,183.833 617.5,191.167 617.5,198.5C 620.833,198.5 624.167,198.5 627.5,198.5C 624.038,199.482 620.371,199.815 616.5,199.5C 616.5,191.5 616.5,183.5 616.5,175.5C 619.385,175.194 622.052,175.527 624.5,176.5 Z"/></g>
<g><path style="opacity:0.624" fill="#5d99dc" d="M 226.5,176.5 C 227.434,177.568 227.768,178.901 227.5,180.5C 224.5,180.5 221.5,180.5 218.5,180.5C 221.683,179.149 224.35,177.815 226.5,176.5 Z"/></g>
<g><path style="opacity:1" fill="#317bd3" d="M 275.5,175.5 C 290.134,173.965 295.634,180.298 292,194.5C 287.299,200.41 281.466,201.91 274.5,199C 268.059,194.675 266.226,188.842 269,181.5C 270.494,178.686 272.66,176.686 275.5,175.5 Z M 277.5,180.5 C 282.974,180.067 286.64,182.4 288.5,187.5C 286.05,194.553 281.55,196.22 275,192.5C 272.511,187.757 273.345,183.757 277.5,180.5 Z"/></g>
<g><path style="opacity:1" fill="#5598dc" d="M 624.5,176.5 C 625.167,176.5 625.833,176.5 626.5,176.5C 626.918,177.222 627.584,177.722 628.5,178C 625.456,178.359 625.122,179.026 627.5,180C 626.552,180.483 625.552,180.649 624.5,180.5C 623.5,180.5 622.5,180.5 621.5,180.5C 620.674,185.316 620.174,190.316 620,195.5C 619.333,190.167 619.333,184.833 620,179.5C 621.067,178.809 622.234,178.309 623.5,178C 621.866,177.506 620.199,177.34 618.5,177.5C 618.5,184.167 618.5,190.833 618.5,197.5C 621.728,197.701 624.895,197.367 628,196.5C 629.684,196.683 629.85,197.35 628.5,198.5C 628.167,198.5 627.833,198.5 627.5,198.5C 624.167,198.5 620.833,198.5 617.5,198.5C 617.5,191.167 617.5,183.833 617.5,176.5C 619.833,176.5 622.167,176.5 624.5,176.5 Z"/></g>
<g><path style="opacity:1" fill="#357dd3" d="M 680.5,175.5 C 693.324,173.497 699.157,178.83 698,191.5C 694.101,199.469 687.934,201.969 679.5,199C 672.132,193.932 670.632,187.432 675,179.5C 676.812,178.023 678.645,176.69 680.5,175.5 Z M 682.5,180.5 C 688.168,179.993 691.835,182.493 693.5,188C 690.726,194.604 686.226,196.104 680,192.5C 679.293,190.919 678.46,189.419 677.5,188C 678.574,185.095 680.241,182.595 682.5,180.5 Z"/></g>
<g><path style="opacity:1" fill="#4086d6" d="M 707.5,176.5 C 713.765,176.363 716.265,179.363 715,185.5C 714.167,187.667 712.667,189.167 710.5,190C 713.278,192.603 714.944,195.77 715.5,199.5C 711.2,200.201 708.534,198.534 707.5,194.5C 706.634,192.856 706.134,191.189 706,189.5C 706.333,189.833 706.667,190.167 707,190.5C 708.214,188.951 709.714,187.785 711.5,187C 714.389,183.767 714.055,181.433 710.5,180C 712.661,181.764 712.828,183.597 711,185.5C 710.79,183.942 710.29,182.609 709.5,181.5C 708.417,181.461 707.417,181.127 706.5,180.5C 705.207,182.636 705.207,184.636 706.5,186.5C 708.379,186.393 708.712,186.893 707.5,188C 704.082,188.649 702.749,187.149 703.5,183.5C 703.046,180.776 704.046,178.943 706.5,178C 705.207,177.51 703.873,177.343 702.5,177.5C 702.334,184.175 702.5,190.842 703,197.5C 703.333,194.833 703.667,192.167 704,189.5C 704.498,192.482 704.665,195.482 704.5,198.5C 703.5,198.5 702.5,198.5 701.5,198.5C 701.5,191.167 701.5,183.833 701.5,176.5C 703.5,176.5 705.5,176.5 707.5,176.5 Z M 709.5,181.5 C 709.69,183.959 708.69,185.626 706.5,186.5C 705.207,184.636 705.207,182.636 706.5,180.5C 707.417,181.127 708.417,181.461 709.5,181.5 Z"/></g>
<g><path style="opacity:1" fill="#1f70cf" d="M 296.5,175.5 C 301.833,178.833 306.167,183.167 309.5,188.5C 308.883,188.389 308.383,188.056 308,187.5C 307.5,188.667 306.667,189.5 305.5,190C 307.037,191.707 308.704,193.207 310.5,194.5C 310.5,195.167 310.5,195.833 310.5,196.5C 307.203,193.704 304.036,190.704 301,187.5C 300.501,191.486 300.334,195.486 300.5,199.5C 298.585,199.784 296.919,199.451 295.5,198.5C 296.873,198.657 298.207,198.49 299.5,198C 298.217,194.936 297.55,191.603 297.5,188C 297.519,184.582 297.853,181.249 298.5,178C 297.619,177.292 296.953,176.458 296.5,175.5 Z"/></g>
<g><path style="opacity:0.659" fill="#3d83d5" d="M 383.5,181.5 C 381.265,180.752 381.598,179.919 384.5,179C 387.572,178.544 390.572,178.544 393.5,179C 388.103,176.489 383.27,177.323 379,181.5C 378.7,179.934 379.2,178.601 380.5,177.5C 380.918,176.778 381.584,176.278 382.5,176C 386.167,175.333 389.833,175.333 393.5,176C 395.25,177.754 395.917,179.921 395.5,182.5C 392.972,181.989 390.472,181.322 388,180.5C 386.467,180.773 384.967,181.106 383.5,181.5 Z"/></g>
<g><path style="opacity:1" fill="#1e6fcf" d="M 424.5,175.5 C 430.134,179.467 435.134,184.134 439.5,189.5C 439.082,190.222 438.416,190.722 437.5,191C 438.793,191.49 440.127,191.657 441.5,191.5C 441.334,186.821 441.501,182.155 442,177.5C 442.811,184.414 442.645,191.248 441.5,198C 442,198.5 442.5,199 443,199.5C 443.5,191.841 443.666,184.174 443.5,176.5C 442.167,176.5 440.833,176.5 439.5,176.5C 440.919,175.549 442.585,175.216 444.5,175.5C 444.5,183.833 444.5,192.167 444.5,200.5C 443.448,200.649 442.448,200.483 441.5,200C 437.333,195.833 433.167,191.667 429,187.5C 428.501,191.486 428.334,195.486 428.5,199.5C 426.585,199.784 424.919,199.451 423.5,198.5C 424.833,198.5 426.167,198.5 427.5,198.5C 427.666,193.821 427.499,189.155 427,184.5C 426.667,188.833 426.333,193.167 426,197.5C 425.19,190.918 425.357,184.418 426.5,178C 425.619,177.292 424.953,176.458 424.5,175.5 Z"/></g>
<g><path style="opacity:1" fill="#5799dc" d="M 439.5,176.5 C 440.833,176.5 442.167,176.5 443.5,176.5C 443.666,184.174 443.5,191.841 443,199.5C 442.5,199 442,198.5 441.5,198C 442.645,191.248 442.811,184.414 442,177.5C 441.501,182.155 441.334,186.821 441.5,191.5C 440.127,191.657 438.793,191.49 437.5,191C 438.416,190.722 439.082,190.222 439.5,189.5C 439.5,185.167 439.5,180.833 439.5,176.5 Z"/></g>
<g><path style="opacity:0.556" fill="#5797dc" d="M 657.5,176.5 C 662.167,176.5 666.833,176.5 671.5,176.5C 671.5,177.833 671.5,179.167 671.5,180.5C 670.167,180.5 668.833,180.5 667.5,180.5C 666.51,186.31 666.177,192.31 666.5,198.5C 665.167,198.5 663.833,198.5 662.5,198.5C 662.666,192.824 662.499,187.157 662,181.5C 660.301,180.594 658.467,180.261 656.5,180.5C 656.232,178.901 656.566,177.568 657.5,176.5 Z"/></g>
<g><path style="opacity:1" fill="#0267cc" d="M 658.5,178.5 C 662.311,177.355 666.311,177.188 670.5,178C 668.899,178.273 667.399,178.773 666,179.5C 665.667,185.5 665.333,191.5 665,197.5C 664.667,191.833 664.333,186.167 664,180.5C 662.556,178.845 660.722,178.178 658.5,178.5 Z"/></g>
<g><path style="opacity:0.301" fill="#0468cc" d="M 249.5,180.5 C 250.49,186.31 250.823,192.31 250.5,198.5C 251.833,198.5 253.167,198.5 254.5,198.5C 253.081,199.451 251.415,199.784 249.5,199.5C 249.5,193.167 249.5,186.833 249.5,180.5 Z"/></g>
<g><path style="opacity:1" fill="#5698dc" d="M 259.5,176.5 C 259.5,177.833 259.5,179.167 259.5,180.5C 257.833,180.5 256.167,180.5 254.5,180.5C 254.5,186.5 254.5,192.5 254.5,198.5C 253.167,198.5 251.833,198.5 250.5,198.5C 250.823,192.31 250.49,186.31 249.5,180.5C 248.167,180.5 246.833,180.5 245.5,180.5C 245.5,179.167 245.5,177.833 245.5,176.5C 250.167,176.5 254.833,176.5 259.5,176.5 Z"/></g>
<g><path style="opacity:1" fill="#0166cc" d="M 246.5,178.5 C 249.976,177.357 253.642,177.19 257.5,178C 255.899,178.273 254.399,178.773 253,179.5C 252.333,203.5 251.667,203.5 251,179.5C 249.644,178.62 248.144,178.286 246.5,178.5 Z"/></g>
<g><path style="opacity:0.301" fill="#0568cc" d="M 667.5,180.5 C 667.5,186.833 667.5,193.167 667.5,199.5C 665.585,199.784 663.919,199.451 662.5,198.5C 663.833,198.5 665.167,198.5 666.5,198.5C 666.177,192.31 666.51,186.31 667.5,180.5 Z"/></g>
<g><path style="opacity:0.576" fill="#317bd3" d="M 527.5,176.5 C 532.478,174.867 536.978,175.867 541,179.5C 542.338,184.05 541.171,187.717 537.5,190.5C 539.813,193.121 541.147,196.121 541.5,199.5C 539.801,199.66 538.134,199.494 536.5,199C 533.577,193.161 532.243,193.327 532.5,199.5C 530.585,199.784 528.919,199.451 527.5,198.5C 528.873,198.657 530.207,198.49 531.5,198C 530.197,190.701 528.864,183.534 527.5,176.5 Z M 532.5,180.5 C 537.016,181.625 537.35,183.292 533.5,185.5C 532.548,183.955 532.215,182.288 532.5,180.5 Z"/></g>
<g><path style="opacity:1" fill="#5497dc" d="M 218.5,184.5 C 221.167,184.5 223.833,184.5 226.5,184.5C 226.5,185.833 226.5,187.167 226.5,188.5C 223.482,188.665 220.482,188.498 217.5,188C 228.167,187.333 228.167,186.667 217.5,186C 218.056,185.617 218.389,185.117 218.5,184.5 Z"/></g>
<g><path style="opacity:0.927" fill="#3e84d6" d="M 238.5,190.5 C 237.992,192.909 237.326,192.742 236.5,190C 236.645,189.228 236.978,188.561 237.5,188C 231.953,188.296 230.12,185.796 232,180.5C 232.903,179.299 234.069,178.465 235.5,178C 233.866,177.506 232.199,177.34 230.5,177.5C 230.334,184.175 230.5,190.842 231,197.5C 231.186,195.1 231.686,192.766 232.5,190.5C 233.298,190.957 233.631,191.624 233.5,192.5C 233.5,194.5 233.5,196.5 233.5,198.5C 232.167,198.5 230.833,198.5 229.5,198.5C 229.5,191.167 229.5,183.833 229.5,176.5C 234.478,174.867 238.978,175.867 243,179.5C 244.609,184.609 243.109,188.275 238.5,190.5 Z M 234.5,180.5 C 239.588,182.804 239.254,184.471 233.5,185.5C 233.366,183.708 233.699,182.042 234.5,180.5 Z"/></g>
<g><path style="opacity:1" fill="#337cd3" d="M 199.5,175.5 C 203.257,175.071 206.757,175.737 210,177.5C 210.321,182.911 208.154,183.911 203.5,180.5C 202.692,180.808 202.025,181.308 201.5,182C 204.927,183.796 208.094,185.963 211,188.5C 212.875,196.619 209.708,200.452 201.5,200C 196.949,198.951 194.949,196.118 195.5,191.5C 198.798,191.016 201.464,192.016 203.5,194.5C 204.737,194.444 205.737,193.944 206.5,193C 203.463,190.391 200.297,187.891 197,185.5C 195.863,181.537 196.697,178.204 199.5,175.5 Z"/></g>
<g><path style="opacity:1" fill="#3079d2" d="M 582.5,175.5 C 583.675,175.281 584.675,175.614 585.5,176.5C 589.103,183.983 592.103,191.65 594.5,199.5C 590.518,200.422 588.184,198.922 587.5,195C 582.92,193.628 579.586,194.962 577.5,199C 575.866,199.494 574.199,199.66 572.5,199.5C 575.246,191.264 578.579,183.264 582.5,175.5 Z M 582.5,187.5 C 584.337,187.639 584.67,188.306 583.5,189.5C 582.702,189.043 582.369,188.376 582.5,187.5 Z"/></g>
<g><path style="opacity:1" fill="#347dd3" d="M 450.5,175.5 C 454.257,175.071 457.757,175.737 461,177.5C 461.684,178.784 461.517,179.951 460.5,181C 450.212,180.373 450.045,182.207 460,186.5C 464.456,197.377 460.956,201.544 449.5,199C 447.773,197.611 446.439,195.944 445.5,194C 445.734,192.268 446.734,191.434 448.5,191.5C 450.792,193.449 453.459,194.449 456.5,194.5C 456.649,193.448 456.483,192.448 456,191.5C 453.749,189.623 451.249,188.123 448.5,187C 445.513,182.439 446.18,178.606 450.5,175.5 Z"/></g>
<g><path style="opacity:0.816" fill="#156ece" d="M 707.5,176.5 C 705.5,176.5 703.5,176.5 701.5,176.5C 701.5,183.833 701.5,191.167 701.5,198.5C 702.5,198.5 703.5,198.5 704.5,198.5C 704.665,195.482 704.498,192.482 704,189.5C 703.667,192.167 703.333,194.833 703,197.5C 702.5,190.842 702.334,184.175 702.5,177.5C 703.873,177.343 705.207,177.51 706.5,178C 704.046,178.943 703.046,180.776 703.5,183.5C 702.749,187.149 704.082,188.649 707.5,188C 708.712,186.893 708.379,186.393 706.5,186.5C 708.69,185.626 709.69,183.959 709.5,181.5C 710.29,182.609 710.79,183.942 711,185.5C 712.828,183.597 712.661,181.764 710.5,180C 714.055,181.433 714.389,183.767 711.5,187C 709.714,187.785 708.214,188.951 707,190.5C 706.667,190.167 706.333,189.833 706,189.5C 706.134,191.189 706.634,192.856 707.5,194.5C 706.883,194.389 706.383,194.056 706,193.5C 705.505,195.473 705.338,197.473 705.5,199.5C 703.833,199.5 702.167,199.5 700.5,199.5C 700.5,191.5 700.5,183.5 700.5,175.5C 703.059,175.198 705.393,175.532 707.5,176.5 Z M 709.5,181.5 C 709.69,183.959 708.69,185.626 706.5,186.5C 705.207,184.636 705.207,182.636 706.5,180.5C 707.417,181.127 708.417,181.461 709.5,181.5 Z"/></g>
<g><path style="opacity:1" fill="#2b76d1" d="M 238.5,190.5 C 241.472,192.778 243.139,195.778 243.5,199.5C 241.801,199.66 240.134,199.494 238.5,199C 236.934,196.674 235.268,194.508 233.5,192.5C 233.631,191.624 233.298,190.957 232.5,190.5C 231.686,192.766 231.186,195.1 231,197.5C 230.5,190.842 230.334,184.175 230.5,177.5C 232.199,177.34 233.866,177.506 235.5,178C 234.069,178.465 232.903,179.299 232,180.5C 230.12,185.796 231.953,188.296 237.5,188C 236.978,188.561 236.645,189.228 236.5,190C 237.326,192.742 237.992,192.909 238.5,190.5 Z"/></g>
<g><path style="opacity:0.918" fill="#4f91da" d="M 311.5,176.5 C 312.833,176.5 314.167,176.5 315.5,176.5C 316.132,184.573 315.465,192.24 313.5,199.5C 312.167,198.833 311.167,197.833 310.5,196.5C 310.5,195.833 310.5,195.167 310.5,194.5C 308.704,193.207 307.037,191.707 305.5,190C 306.667,189.5 307.5,188.667 308,187.5C 308.383,188.056 308.883,188.389 309.5,188.5C 310.117,188.611 310.617,188.944 311,189.5C 311.499,185.179 311.666,180.846 311.5,176.5 Z"/></g>
<g><path style="opacity:1" fill="#0467cc" d="M 310.5,194.5 C 310.75,193.078 311.583,192.078 313,191.5C 313.333,186.833 313.667,182.167 314,177.5C 314.667,184.167 314.667,190.833 314,197.5C 312.961,196.29 311.794,195.29 310.5,194.5 Z"/></g>
<g><path style="opacity:1" fill="#357dd3" d="M 551.5,175.5 C 553.467,175.261 555.301,175.594 557,176.5C 559,180.5 561,184.5 563,188.5C 564.559,184.381 566.393,180.381 568.5,176.5C 570.045,175.548 571.712,175.215 573.5,175.5C 571.361,183.454 568.361,191.121 564.5,198.5C 563.311,199.429 561.978,199.762 560.5,199.5C 557.5,191.5 554.5,183.5 551.5,175.5 Z"/></g>
<g><path style="opacity:1" fill="#2d78d2" d="M 626.5,176.5 C 630.562,176.724 633.395,178.724 635,182.5C 637.392,189.961 635.225,195.294 628.5,198.5C 629.85,197.35 629.684,196.683 628,196.5C 624.895,197.367 621.728,197.701 618.5,197.5C 618.5,190.833 618.5,184.167 618.5,177.5C 620.199,177.34 621.866,177.506 623.5,178C 622.234,178.309 621.067,178.809 620,179.5C 619.333,184.833 619.333,190.167 620,195.5C 620.174,190.316 620.674,185.316 621.5,180.5C 621.5,185.167 621.5,189.833 621.5,194.5C 629.103,194.09 631.603,190.423 629,183.5C 627.591,182.219 626.091,181.219 624.5,180.5C 625.552,180.649 626.552,180.483 627.5,180C 625.122,179.026 625.456,178.359 628.5,178C 627.584,177.722 626.918,177.222 626.5,176.5 Z M 621.5,180.5 C 622.5,180.5 623.5,180.5 624.5,180.5C 626.091,181.219 627.591,182.219 629,183.5C 631.603,190.423 629.103,194.09 621.5,194.5C 621.5,189.833 621.5,185.167 621.5,180.5 Z"/></g>
<g><path style="opacity:1" fill="#337ad3" d="M 488.5,175.5 C 489.822,175.33 490.989,175.663 492,176.5C 493.409,180.316 495.076,183.983 497,187.5C 498.667,183.833 500.333,180.167 502,176.5C 503.011,175.663 504.178,175.33 505.5,175.5C 507.169,183.509 508.836,191.509 510.5,199.5C 508.712,199.785 507.045,199.452 505.5,198.5C 504.512,195.55 503.679,192.55 503,189.5C 501.227,193.387 499.227,197.053 497,200.5C 494.447,197.21 492.447,193.543 491,189.5C 489.85,192.768 489.016,196.101 488.5,199.5C 486.833,199.5 485.167,199.5 483.5,199.5C 484.849,191.437 486.516,183.437 488.5,175.5 Z"/></g>
<g><path style="opacity:1" fill="#2f79d2" d="M 380.5,177.5 C 379.2,178.601 378.7,179.934 379,181.5C 383.27,177.323 388.103,176.489 393.5,179C 390.572,178.544 387.572,178.544 384.5,179C 381.598,179.919 381.265,180.752 383.5,181.5C 380.189,184.707 379.689,188.374 382,192.5C 383.739,193.894 385.739,194.561 388,194.5C 390.498,194.083 392.998,193.749 395.5,193.5C 395.739,195.467 395.406,197.301 394.5,199C 381.396,202.719 374.896,197.886 375,184.5C 375.432,180.928 377.265,178.595 380.5,177.5 Z"/></g>
<g><path style="opacity:1" fill="#317bd3" d="M 403.5,175.5 C 418.156,173.985 423.656,180.319 420,194.5C 415.299,200.41 409.466,201.91 402.5,199C 396.059,194.675 394.226,188.842 397,181.5C 398.914,179.144 401.081,177.144 403.5,175.5 Z M 406.5,180.5 C 414.218,180.693 417.052,184.36 415,191.5C 410.199,195.749 405.866,195.416 402,190.5C 400.571,185.783 402.071,182.45 406.5,180.5 Z"/></g>
<g><path style="opacity:1" fill="#3980d4" d="M 171.5,184.5 C 173.769,188.038 175.769,191.705 177.5,195.5C 177.5,196.833 177.5,198.167 177.5,199.5C 173.881,199.956 171.548,198.456 170.5,195C 167.773,194.182 165.106,194.348 162.5,195.5C 161.754,196.736 161.421,198.07 161.5,199.5C 159.5,199.5 157.5,199.5 155.5,199.5C 157.071,193.77 159.404,188.437 162.5,183.5C 163.222,183.082 163.722,182.416 164,181.5C 164.429,183.669 163.929,185.669 162.5,187.5C 163.167,187.833 163.833,188.167 164.5,188.5C 164.291,189.086 163.957,189.586 163.5,190C 165.5,190.333 167.5,190.667 169.5,191C 166.621,191.957 164.121,191.457 162,189.5C 160.635,190.593 160.301,191.926 161,193.5C 162.738,192.873 164.571,192.54 166.5,192.5C 169.011,192.288 171.178,192.955 173,194.5C 172.607,190.849 171.44,187.349 169.5,184C 169.667,183.5 169.833,183 170,182.5C 170.278,183.416 170.778,184.082 171.5,184.5 Z M 166.5,186.5 C 165.913,187.767 165.913,188.767 166.5,189.5C 167.776,188.386 167.776,187.386 166.5,186.5 Z"/></g>
<g><path style="opacity:1" fill="#327bd3" d="M 644.5,175.5 C 645.822,175.33 646.989,175.663 648,176.5C 651.738,183.97 654.905,191.637 657.5,199.5C 653.855,200.32 651.522,198.987 650.5,195.5C 645.961,193.625 642.628,194.792 640.5,199C 638.866,199.494 637.199,199.66 635.5,199.5C 638.098,191.374 641.098,183.374 644.5,175.5 Z M 645.5,187.5 C 647.337,187.639 647.67,188.306 646.5,189.5C 645.702,189.043 645.369,188.376 645.5,187.5 Z"/></g>
<g><path style="opacity:0.877" fill="#4186d6" d="M 468.5,176.5 C 468.096,182.29 468.596,187.956 470,193.5C 473.242,196.259 475.742,195.593 477.5,191.5C 478.487,186.695 478.821,181.695 478.5,176.5C 479.5,176.5 480.5,176.5 481.5,176.5C 481.5,182.5 481.5,188.5 481.5,194.5C 480.279,198.546 477.446,200.546 473,200.5C 467.71,200.375 464.877,197.709 464.5,192.5C 464.5,187.167 464.5,181.833 464.5,176.5C 465.833,176.5 467.167,176.5 468.5,176.5 Z"/></g>
<g><path style="opacity:0.835" fill="#377fd4" d="M 177.5,195.5 C 177.085,193.052 178.085,191.719 180.5,191.5C 182.792,193.449 185.459,194.449 188.5,194.5C 188.649,193.448 188.483,192.448 188,191.5C 183.487,189.654 180.321,186.487 178.5,182C 180.208,175.905 184.208,173.905 190.5,176C 193.035,176.928 194.035,178.762 193.5,181.5C 182.926,179.875 182.259,181.375 191.5,186C 195.5,190.333 195.5,194.667 191.5,199C 185.909,201.568 181.243,200.401 177.5,195.5 Z"/></g>
<g><path style="opacity:1" fill="#629fde" d="M 213.5,176.5 C 215.461,183.087 216.128,190.087 215.5,197.5C 218.85,197.665 222.183,197.498 225.5,197C 222.833,196.667 220.167,196.333 217.5,196C 220.482,195.502 223.482,195.335 226.5,195.5C 226.5,196.5 226.5,197.5 226.5,198.5C 222.167,198.5 217.833,198.5 213.5,198.5C 213.5,191.167 213.5,183.833 213.5,176.5 Z"/></g>
<g><path style="opacity:1" fill="#5999dc" d="M 600.5,176.5 C 600.5,182.5 600.5,188.5 600.5,194.5C 602.833,194.5 605.167,194.5 607.5,194.5C 607.5,195.833 607.5,197.167 607.5,198.5C 603.833,198.5 600.167,198.5 596.5,198.5C 596.5,191.167 596.5,183.833 596.5,176.5C 597.833,176.5 599.167,176.5 600.5,176.5 Z"/></g>
<g><path style="opacity:1" fill="#0066cc" d="M 597.5,177.5 C 598.328,183.319 598.828,189.319 599,195.5C 601.069,196.264 603.236,196.764 605.5,197C 602.854,197.497 600.187,197.664 597.5,197.5C 597.5,190.833 597.5,184.167 597.5,177.5 Z"/></g>
</svg>
